<svg width="121" height="23" viewBox="0 0 121 23" fill="none" xmlns="http://www.w3.org/2000/svg">
<path d="M9.31 7.17C9.23 7.31 9.14333 7.41333 9.05 7.48C8.96333 7.54 8.85333 7.57 8.72 7.57C8.58 7.57 8.42667 7.52 8.26 7.42C8.1 7.31333 7.90667 7.19667 7.68 7.07C7.45333 6.94333 7.18667 6.83 6.88 6.73C6.58 6.62333 6.22333 6.57 5.81 6.57C5.43667 6.57 5.11 6.61667 4.83 6.71C4.55 6.79667 4.31333 6.92 4.12 7.08C3.93333 7.24 3.79333 7.43333 3.7 7.66C3.60667 7.88 3.56 8.12333 3.56 8.39C3.56 8.73 3.65333 9.01333 3.84 9.24C4.03333 9.46667 4.28667 9.66 4.6 9.82C4.91333 9.98 5.27 10.1233 5.67 10.25C6.07 10.3767 6.48 10.5133 6.9 10.66C7.32 10.8 7.73 10.9667 8.13 11.16C8.53 11.3467 8.88667 11.5867 9.2 11.88C9.51333 12.1667 9.76333 12.52 9.95 12.94C10.1433 13.36 10.24 13.87 10.24 14.47C10.24 15.1233 10.1267 15.7367 9.9 16.31C9.68 16.8767 9.35333 17.3733 8.92 17.8C8.49333 18.22 7.97 18.5533 7.35 18.8C6.73 19.04 6.02 19.16 5.22 19.16C4.76 19.16 4.30667 19.1133 3.86 19.02C3.41333 18.9333 2.98333 18.8067 2.57 18.64C2.16333 18.4733 1.78 18.2733 1.42 18.04C1.06 17.8067 0.74 17.5467 0.46 17.26L1.25 15.97C1.31667 15.8767 1.40333 15.8 1.51 15.74C1.61667 15.6733 1.73 15.64 1.85 15.64C2.01667 15.64 2.19667 15.71 2.39 15.85C2.58333 15.9833 2.81333 16.1333 3.08 16.3C3.34667 16.4667 3.65667 16.62 4.01 16.76C4.37 16.8933 4.8 16.96 5.3 16.96C6.06667 16.96 6.66 16.78 7.08 16.42C7.5 16.0533 7.71 15.53 7.71 14.85C7.71 14.47 7.61333 14.16 7.42 13.92C7.23333 13.68 6.98333 13.48 6.67 13.32C6.35667 13.1533 6 13.0133 5.6 12.9C5.2 12.7867 4.79333 12.6633 4.38 12.53C3.96667 12.3967 3.56 12.2367 3.16 12.05C2.76 11.8633 2.40333 11.62 2.09 11.32C1.77667 11.02 1.52333 10.6467 1.33 10.2C1.14333 9.74667 1.05 9.19 1.05 8.53C1.05 8.00333 1.15333 7.49 1.36 6.99C1.57333 6.49 1.88 6.04667 2.28 5.66C2.68 5.27333 3.17333 4.96333 3.76 4.73C4.34667 4.49667 5.02 4.38 5.78 4.38C6.63333 4.38 7.42 4.51333 8.14 4.78C8.86 5.04667 9.47333 5.42 9.98 5.9L9.31 7.17ZM18.7675 12.69C18.7675 12.37 18.7208 12.07 18.6275 11.79C18.5408 11.5033 18.4075 11.2533 18.2275 11.04C18.0475 10.8267 17.8175 10.66 17.5375 10.54C17.2642 10.4133 16.9442 10.35 16.5775 10.35C15.8642 10.35 15.3008 10.5533 14.8875 10.96C14.4808 11.3667 14.2208 11.9433 14.1075 12.69H18.7675ZM14.0575 14.18C14.0975 14.7067 14.1908 15.1633 14.3375 15.55C14.4842 15.93 14.6775 16.2467 14.9175 16.5C15.1575 16.7467 15.4408 16.9333 15.7675 17.06C16.1008 17.18 16.4675 17.24 16.8675 17.24C17.2675 17.24 17.6108 17.1933 17.8975 17.1C18.1908 17.0067 18.4442 16.9033 18.6575 16.79C18.8775 16.6767 19.0675 16.5733 19.2275 16.48C19.3942 16.3867 19.5542 16.34 19.7075 16.34C19.9142 16.34 20.0675 16.4167 20.1675 16.57L20.8775 17.47C20.6042 17.79 20.2975 18.06 19.9575 18.28C19.6175 18.4933 19.2608 18.6667 18.8875 18.8C18.5208 18.9267 18.1442 19.0167 17.7575 19.07C17.3775 19.1233 17.0075 19.15 16.6475 19.15C15.9342 19.15 15.2708 19.0333 14.6575 18.8C14.0442 18.56 13.5108 18.21 13.0575 17.75C12.6042 17.2833 12.2475 16.71 11.9875 16.03C11.7275 15.3433 11.5975 14.55 11.5975 13.65C11.5975 12.95 11.7108 12.2933 11.9375 11.68C12.1642 11.06 12.4875 10.5233 12.9075 10.07C13.3342 9.61 13.8508 9.24667 14.4575 8.98C15.0708 8.71333 15.7608 8.58 16.5275 8.58C17.1742 8.58 17.7708 8.68333 18.3175 8.89C18.8642 9.09667 19.3342 9.4 19.7275 9.8C20.1208 10.1933 20.4275 10.68 20.6475 11.26C20.8742 11.8333 20.9875 12.49 20.9875 13.23C20.9875 13.6033 20.9475 13.8567 20.8675 13.99C20.7875 14.1167 20.6342 14.18 20.4075 14.18H14.0575ZM30.9411 17.47C30.4878 18.0033 29.9744 18.3967 29.4011 18.65C28.8344 18.8967 28.2478 19.05 27.6411 19.11L27.5111 19.61C28.1378 19.7567 28.5744 19.9533 28.8211 20.2C29.0744 20.4533 29.2011 20.7533 29.2011 21.1C29.2011 21.3267 29.1411 21.53 29.0211 21.71C28.9078 21.89 28.7411 22.0433 28.5211 22.17C28.3078 22.2967 28.0511 22.3933 27.7511 22.46C27.4578 22.5267 27.1311 22.56 26.7711 22.56C26.4978 22.56 26.2411 22.54 26.0011 22.5C25.7611 22.4667 25.5278 22.4133 25.3011 22.34L25.5211 21.57C25.5611 21.4167 25.6578 21.34 25.8111 21.34C25.9044 21.34 26.0078 21.3633 26.1211 21.41C26.2344 21.4633 26.3978 21.49 26.6111 21.49C26.8311 21.49 26.9944 21.4467 27.1011 21.36C27.2144 21.28 27.2711 21.18 27.2711 21.06C27.2711 20.8667 27.1511 20.7267 26.9111 20.64C26.6711 20.56 26.3011 20.4833 25.8011 20.41L26.2411 19.1C25.6811 19.02 25.1611 18.8467 24.6811 18.58C24.2011 18.3067 23.7844 17.95 23.4311 17.51C23.0778 17.0633 22.7978 16.5333 22.5911 15.92C22.3911 15.3067 22.2911 14.6167 22.2911 13.85C22.2911 13.0967 22.3978 12.4 22.6111 11.76C22.8311 11.1133 23.1511 10.5567 23.5711 10.09C23.9911 9.61667 24.5111 9.24667 25.1311 8.98C25.7511 8.71333 26.4644 8.58 27.2711 8.58C28.0378 8.58 28.7078 8.70333 29.2811 8.95C29.8611 9.19667 30.3811 9.55 30.8411 10.01L30.1911 10.91C30.1178 11.0033 30.0444 11.0767 29.9711 11.13C29.9044 11.1833 29.8044 11.21 29.6711 11.21C29.5444 11.21 29.4211 11.1733 29.3011 11.1C29.1811 11.02 29.0378 10.9333 28.8711 10.84C28.7044 10.74 28.5044 10.6533 28.2711 10.58C28.0444 10.5 27.7611 10.46 27.4211 10.46C26.9878 10.46 26.6078 10.54 26.2811 10.7C25.9544 10.8533 25.6811 11.0767 25.4611 11.37C25.2478 11.6633 25.0878 12.02 24.9811 12.44C24.8744 12.8533 24.8211 13.3233 24.8211 13.85C24.8211 14.3967 24.8778 14.8833 24.9911 15.31C25.1111 15.7367 25.2811 16.0967 25.5011 16.39C25.7211 16.6767 25.9878 16.8967 26.3011 17.05C26.6144 17.1967 26.9678 17.27 27.3611 17.27C27.7544 17.27 28.0711 17.2233 28.3111 17.13C28.5578 17.03 28.7644 16.9233 28.9311 16.81C29.0978 16.69 29.2411 16.5833 29.3611 16.49C29.4878 16.39 29.6278 16.34 29.7811 16.34C29.9811 16.34 30.1311 16.4167 30.2311 16.57L30.9411 17.47ZM35.0691 8.74V19H32.5891V8.74H35.0691ZM35.4091 5.75C35.4091 5.96333 35.3657 6.16333 35.2791 6.35C35.1924 6.53667 35.0757 6.7 34.9291 6.84C34.7891 6.98 34.6224 7.09333 34.4291 7.18C34.2357 7.26 34.0291 7.3 33.8091 7.3C33.5957 7.3 33.3924 7.26 33.1991 7.18C33.0124 7.09333 32.8491 6.98 32.7091 6.84C32.5691 6.7 32.4557 6.53667 32.3691 6.35C32.2891 6.16333 32.2491 5.96333 32.2491 5.75C32.2491 5.53 32.2891 5.32333 32.3691 5.13C32.4557 4.93667 32.5691 4.77 32.7091 4.63C32.8491 4.49 33.0124 4.38 33.1991 4.3C33.3924 4.21333 33.5957 4.17 33.8091 4.17C34.0291 4.17 34.2357 4.21333 34.4291 4.3C34.6224 4.38 34.7891 4.49 34.9291 4.63C35.0757 4.77 35.1924 4.93667 35.2791 5.13C35.3657 5.32333 35.4091 5.53 35.4091 5.75ZM40.0872 4.14V19H37.6172V4.14H40.0872ZM53.6214 16.83C54.1414 16.83 54.6047 16.7433 55.0114 16.57C55.4247 16.3967 55.7714 16.1533 56.0514 15.84C56.3314 15.5267 56.5447 15.1467 56.6914 14.7C56.8447 14.2533 56.9214 13.7533 56.9214 13.2V4.54H59.6114V13.2C59.6114 14.06 59.4714 14.8567 59.1914 15.59C58.9181 16.3167 58.5214 16.9467 58.0014 17.48C57.4881 18.0067 56.8614 18.42 56.1214 18.72C55.3814 19.0133 54.5481 19.16 53.6214 19.16C52.6881 19.16 51.8514 19.0133 51.1114 18.72C50.3714 18.42 49.7414 18.0067 49.2214 17.48C48.7081 16.9467 48.3114 16.3167 48.0314 15.59C47.7581 14.8567 47.6214 14.06 47.6214 13.2V4.54H50.3114V13.19C50.3114 13.7433 50.3847 14.2433 50.5314 14.69C50.6847 15.1367 50.9014 15.52 51.1814 15.84C51.4681 16.1533 51.8147 16.3967 52.2214 16.57C52.6347 16.7433 53.1014 16.83 53.6214 16.83ZM52.7614 2.33C52.7614 2.51 52.7247 2.68 52.6514 2.84C52.5781 3 52.4781 3.14 52.3514 3.26C52.2314 3.38 52.0881 3.47333 51.9214 3.54C51.7547 3.60667 51.5781 3.64 51.3914 3.64C51.2181 3.64 51.0514 3.60667 50.8914 3.54C50.7381 3.47333 50.6014 3.38 50.4814 3.26C50.3614 3.14 50.2647 3 50.1914 2.84C50.1181 2.68 50.0814 2.51 50.0814 2.33C50.0814 2.15 50.1181 1.98 50.1914 1.82C50.2647 1.65333 50.3614 1.51 50.4814 1.39C50.6014 1.26333 50.7381 1.16333 50.8914 1.09C51.0514 1.01667 51.2181 0.98 51.3914 0.98C51.5781 0.98 51.7547 1.01667 51.9214 1.09C52.0881 1.16333 52.2314 1.26333 52.3514 1.39C52.4781 1.51 52.5781 1.65333 52.6514 1.82C52.7247 1.98 52.7614 2.15 52.7614 2.33ZM57.1614 2.33C57.1614 2.51 57.1247 2.68 57.0514 2.84C56.9847 3 56.8881 3.14 56.7614 3.26C56.6414 3.38 56.4981 3.47333 56.3314 3.54C56.1714 3.60667 56.0014 3.64 55.8214 3.64C55.6347 3.64 55.4581 3.60667 55.2914 3.54C55.1314 3.47333 54.9914 3.38 54.8714 3.26C54.7514 3.14 54.6547 3 54.5814 2.84C54.5147 2.68 54.4814 2.51 54.4814 2.33C54.4814 2.15 54.5147 1.98 54.5814 1.82C54.6547 1.65333 54.7514 1.51 54.8714 1.39C54.9914 1.26333 55.1314 1.16333 55.2914 1.09C55.4581 1.01667 55.6347 0.98 55.8214 0.98C56.0014 0.98 56.1714 1.01667 56.3314 1.09C56.4981 1.16333 56.6414 1.26333 56.7614 1.39C56.8881 1.51 56.9847 1.65333 57.0514 1.82C57.1247 1.98 57.1614 2.15 57.1614 2.33ZM64.2331 10C64.4398 9.79333 64.6565 9.60333 64.8831 9.43C65.1165 9.25 65.3598 9.1 65.6131 8.98C65.8731 8.85333 66.1498 8.75667 66.4431 8.69C66.7365 8.61667 67.0565 8.58 67.4031 8.58C67.9631 8.58 68.4598 8.67667 68.8931 8.87C69.3265 9.05667 69.6865 9.32333 69.9731 9.67C70.2665 10.01 70.4865 10.42 70.6331 10.9C70.7865 11.3733 70.8631 11.8967 70.8631 12.47V19H68.3931V12.47C68.3931 11.8433 68.2498 11.36 67.9631 11.02C67.6765 10.6733 67.2398 10.5 66.6531 10.5C66.2265 10.5 65.8265 10.5967 65.4531 10.79C65.0798 10.9833 64.7265 11.2467 64.3931 11.58V19H61.9231V8.74H63.4331C63.7531 8.74 63.9631 8.89 64.0631 9.19L64.2331 10ZM82.2278 8.74L78.1578 19H75.9178L71.8478 8.74H73.8878C74.0745 8.74 74.2278 8.78333 74.3478 8.87C74.4745 8.95667 74.5578 9.06667 74.5978 9.2L76.5778 14.68C76.6845 15 76.7778 15.3133 76.8578 15.62C76.9378 15.9267 77.0078 16.2333 77.0678 16.54C77.1345 16.2333 77.2078 15.9267 77.2878 15.62C77.3678 15.3133 77.4645 15 77.5778 14.68L79.5978 9.2C79.6445 9.06667 79.7278 8.95667 79.8478 8.87C79.9678 8.78333 80.1111 8.74 80.2778 8.74H82.2278ZM89.8417 12.69C89.8417 12.37 89.7951 12.07 89.7017 11.79C89.6151 11.5033 89.4817 11.2533 89.3017 11.04C89.1217 10.8267 88.8917 10.66 88.6117 10.54C88.3384 10.4133 88.0184 10.35 87.6517 10.35C86.9384 10.35 86.3751 10.5533 85.9617 10.96C85.5551 11.3667 85.2951 11.9433 85.1817 12.69H89.8417ZM85.1317 14.18C85.1717 14.7067 85.2651 15.1633 85.4117 15.55C85.5584 15.93 85.7517 16.2467 85.9917 16.5C86.2317 16.7467 86.5151 16.9333 86.8417 17.06C87.1751 17.18 87.5417 17.24 87.9417 17.24C88.3417 17.24 88.6851 17.1933 88.9717 17.1C89.2651 17.0067 89.5184 16.9033 89.7317 16.79C89.9517 16.6767 90.1417 16.5733 90.3017 16.48C90.4684 16.3867 90.6284 16.34 90.7817 16.34C90.9884 16.34 91.1417 16.4167 91.2417 16.57L91.9517 17.47C91.6784 17.79 91.3717 18.06 91.0317 18.28C90.6917 18.4933 90.3351 18.6667 89.9617 18.8C89.5951 18.9267 89.2184 19.0167 88.8317 19.07C88.4517 19.1233 88.0817 19.15 87.7217 19.15C87.0084 19.15 86.3451 19.0333 85.7317 18.8C85.1184 18.56 84.5851 18.21 84.1317 17.75C83.6784 17.2833 83.3217 16.71 83.0617 16.03C82.8017 15.3433 82.6717 14.55 82.6717 13.65C82.6717 12.95 82.7851 12.2933 83.0117 11.68C83.2384 11.06 83.5617 10.5233 83.9817 10.07C84.4084 9.61 84.9251 9.24667 85.5317 8.98C86.1451 8.71333 86.8351 8.58 87.6017 8.58C88.2484 8.58 88.8451 8.68333 89.3917 8.89C89.9384 9.09667 90.4084 9.4 90.8017 9.8C91.1951 10.1933 91.5017 10.68 91.7217 11.26C91.9484 11.8333 92.0617 12.49 92.0617 13.23C92.0617 13.6033 92.0217 13.8567 91.9417 13.99C91.8617 14.1167 91.7084 14.18 91.4817 14.18H85.1317ZM96.2453 10.52C96.5653 9.90667 96.9453 9.42667 97.3853 9.08C97.8253 8.72667 98.3453 8.55 98.9453 8.55C99.4186 8.55 99.7986 8.65333 100.085 8.86L99.9253 10.71C99.892 10.83 99.842 10.9167 99.7753 10.97C99.7153 11.0167 99.632 11.04 99.5253 11.04C99.4253 11.04 99.2753 11.0233 99.0753 10.99C98.882 10.9567 98.692 10.94 98.5053 10.94C98.232 10.94 97.9886 10.98 97.7753 11.06C97.562 11.14 97.3686 11.2567 97.1953 11.41C97.0286 11.5567 96.8786 11.7367 96.7453 11.95C96.6186 12.1633 96.4986 12.4067 96.3853 12.68V19H93.9153V8.74H95.3653C95.6186 8.74 95.7953 8.78667 95.8953 8.88C95.9953 8.96667 96.062 9.12667 96.0953 9.36L96.2453 10.52ZM107.693 12.69C107.693 12.37 107.647 12.07 107.553 11.79C107.467 11.5033 107.333 11.2533 107.153 11.04C106.973 10.8267 106.743 10.66 106.463 10.54C106.19 10.4133 105.87 10.35 105.503 10.35C104.79 10.35 104.227 10.5533 103.813 10.96C103.407 11.3667 103.147 11.9433 103.033 12.69H107.693ZM102.983 14.18C103.023 14.7067 103.117 15.1633 103.263 15.55C103.41 15.93 103.603 16.2467 103.843 16.5C104.083 16.7467 104.367 16.9333 104.693 17.06C105.027 17.18 105.393 17.24 105.793 17.24C106.193 17.24 106.537 17.1933 106.823 17.1C107.117 17.0067 107.37 16.9033 107.583 16.79C107.803 16.6767 107.993 16.5733 108.153 16.48C108.32 16.3867 108.48 16.34 108.633 16.34C108.84 16.34 108.993 16.4167 109.093 16.57L109.803 17.47C109.53 17.79 109.223 18.06 108.883 18.28C108.543 18.4933 108.187 18.6667 107.813 18.8C107.447 18.9267 107.07 19.0167 106.683 19.07C106.303 19.1233 105.933 19.15 105.573 19.15C104.86 19.15 104.197 19.0333 103.583 18.8C102.97 18.56 102.437 18.21 101.983 17.75C101.53 17.2833 101.173 16.71 100.913 16.03C100.653 15.3433 100.523 14.55 100.523 13.65C100.523 12.95 100.637 12.2933 100.863 11.68C101.09 11.06 101.413 10.5233 101.833 10.07C102.26 9.61 102.777 9.24667 103.383 8.98C103.997 8.71333 104.687 8.58 105.453 8.58C106.1 8.58 106.697 8.68333 107.243 8.89C107.79 9.09667 108.26 9.4 108.653 9.8C109.047 10.1933 109.353 10.68 109.573 11.26C109.8 11.8333 109.913 12.49 109.913 13.23C109.913 13.6033 109.873 13.8567 109.793 13.99C109.713 14.1167 109.56 14.18 109.333 14.18H102.983ZM114.077 10C114.284 9.79333 114.5 9.60333 114.727 9.43C114.96 9.25 115.204 9.1 115.457 8.98C115.717 8.85333 115.994 8.75667 116.287 8.69C116.58 8.61667 116.9 8.58 117.247 8.58C117.807 8.58 118.304 8.67667 118.737 8.87C119.17 9.05667 119.53 9.32333 119.817 9.67C120.11 10.01 120.33 10.42 120.477 10.9C120.63 11.3733 120.707 11.8967 120.707 12.47V19H118.237V12.47C118.237 11.8433 118.094 11.36 117.807 11.02C117.52 10.6733 117.084 10.5 116.497 10.5C116.07 10.5 115.67 10.5967 115.297 10.79C114.924 10.9833 114.57 11.2467 114.237 11.58V19H111.767V8.74H113.277C113.597 8.74 113.807 8.89 113.907 9.19L114.077 10Z" fill="#15101A"/>
</svg>
